<svg xmlns="http://www.w3.org/2000/svg" version="1.1" xmlns:xlink="http://www.w3.org/1999/xlink" width="83.19338" height="82.47636"><svg xmlns="http://www.w3.org/2000/svg" version="1.1" xmlns:xlink="http://www.w3.org/1999/xlink" width="83.19338" height="82.47636"><svg version="1.1" width="83.19338" height="82.47636" viewBox="0,0,83.19338,82.47636" id="svg6" sodipodi:docname="john java.svg" inkscape:version="1.4.3 (0d15f75042, 2025-12-25)" xmlns:inkscape="http://www.inkscape.org/namespaces/inkscape" xmlns:sodipodi="http://sodipodi.sourceforge.net/DTD/sodipodi-0.dtd" xmlns="http://www.w3.org/2000/svg" xmlns:svg="http://www.w3.org/2000/svg">
  <defs id="defs6"></defs>
  <sodipodi:namedview id="namedview6" pagecolor="#505050" bordercolor="#eeeeee" borderopacity="1" inkscape:showpageshadow="0" inkscape:pageopacity="0" inkscape:pagecheckerboard="0" inkscape:deskcolor="#505050" inkscape:zoom="9.7361236" inkscape:cx="41.597664" inkscape:cy="41.238178" inkscape:window-width="1920" inkscape:window-height="1012" inkscape:window-x="0" inkscape:window-y="0" inkscape:window-maximized="1" inkscape:current-layer="g6"></sodipodi:namedview>
  <g transform="translate(-278.78389,-143.88323)" id="g6">
    <g stroke-miterlimit="10" id="g5">
      <path d="m 294.70828,215.07746 c -8.28427,0 -15,-6.71573 -15,-15 v -39.55087 c 0,-8.28427 6.71573,-15 15,-15 h 39.55088 c 8.28427,0 15,6.71573 15,15 v 39.55087 c 0,8.28427 -6.71573,15 -15,15 z" fill="#a3794d" stroke="none" stroke-width="0" stroke-linecap="butt" stroke-linejoin="miter" id="path1"></path>
      <path d="m 308.35078,228.00295 c -8.28427,0 -15,-6.71573 -15,-15 v -39.55088 c 0,-8.28427 6.71573,-15 15,-15 h 39.55088 c 8.28427,0 15,6.71573 15,15 v 39.55088 c 0,8.28427 -6.71573,15 -15,15 z" fill="#6d3b07" stroke="none" stroke-width="0" stroke-linecap="butt" stroke-linejoin="miter" id="path2"></path>
      <path d="m 317.14887,201.9908 h 22.82622 c 0,0 0.96418,11.13388 -11.41311,11.41311 -12.19221,0.27505 -11.41311,-11.41311 -11.41311,-11.41311 z" fill="none" stroke="#a3794d" stroke-width="5" stroke-linecap="round" stroke-linejoin="round" id="path3"></path>
      <path d="m 322.42437,172.3902 c 2.72093,2.0445 4.28086,5.69378 2.53924,8.10644 -2.72787,3.77889 -9.16876,8.85732 -1.90307,12.54688" fill="none" stroke="#a3794d" stroke-width="5" stroke-linecap="round" stroke-linejoin="miter" id="path4"></path>
      <path d="m 336.41553,172.35608 c 2.72093,2.0445 4.28086,5.69378 2.53924,8.10644 -2.72787,3.77889 -9.16876,8.85732 -1.90307,12.54688" fill="none" stroke="#a3794d" stroke-width="5" stroke-linecap="round" stroke-linejoin="miter" id="path5"></path>
    </g>
  </g>
</svg></svg><style>@media (prefers-color-scheme: light) { :root { filter: none; } }
@media (prefers-color-scheme: dark) { :root { filter: contrast(0.8333333333333334) brightness(1.7); } }
</style></svg>